<svg id="visual" viewBox="0 0 900 600" width="900" height="600" xmlns="http://www.w3.org/2000/svg" xmlns:xlink="http://www.w3.org/1999/xlink" version="1.1"><g stroke-width="1" stroke-linejoin="bevel"><path d="M512 293L586 380L588 268Z" fill="#297ea6" stroke="#297ea6"></path><path d="M512 293L526 395L586 380Z" fill="#00101c" stroke="#00101c"></path><path d="M586 380L697 285L588 268Z" fill="#1d4e6b" stroke="#1d4e6b"></path><path d="M697 285L624 184L588 268Z" fill="#277297" stroke="#277297"></path><path d="M588 268L469 171L512 293Z" fill="#246688" stroke="#246688"></path><path d="M610 485L673 439L586 380Z" fill="#1d4e6b" stroke="#1d4e6b"></path><path d="M586 380L673 439L697 285Z" fill="#277297" stroke="#277297"></path><path d="M526 395L610 485L586 380Z" fill="#0c2435" stroke="#0c2435"></path><path d="M512 293L425 433L526 395Z" fill="#297ea6" stroke="#297ea6"></path><path d="M526 395L476 537L610 485Z" fill="#112e42" stroke="#112e42"></path><path d="M624 184L469 171L588 268Z" fill="#19435d" stroke="#19435d"></path><path d="M512 293L339 313L425 433Z" fill="#205a7a" stroke="#205a7a"></path><path d="M469 171L388 217L512 293Z" fill="#0c2435" stroke="#0c2435"></path><path d="M697 285L694 163L624 184Z" fill="#0c2435" stroke="#0c2435"></path><path d="M497 76L437 122L469 171Z" fill="#19435d" stroke="#19435d"></path><path d="M610 485L663 510L673 439Z" fill="#1d4e6b" stroke="#1d4e6b"></path><path d="M673 439L790 364L697 285Z" fill="#19435d" stroke="#19435d"></path><path d="M623 600L663 510L610 485Z" fill="#00101c" stroke="#00101c"></path><path d="M388 217L360 260L512 293Z" fill="#297ea6" stroke="#297ea6"></path><path d="M360 260L339 313L512 293Z" fill="#00101c" stroke="#00101c"></path><path d="M784 462L790 364L673 439Z" fill="#112e42" stroke="#112e42"></path><path d="M697 285L798 274L694 163Z" fill="#1d4e6b" stroke="#1d4e6b"></path><path d="M393 488L476 537L425 433Z" fill="#112e42" stroke="#112e42"></path><path d="M425 433L476 537L526 395Z" fill="#1d4e6b" stroke="#1d4e6b"></path><path d="M309 371L393 488L425 433Z" fill="#205a7a" stroke="#205a7a"></path><path d="M497 76L469 171L624 184Z" fill="#112e42" stroke="#112e42"></path><path d="M469 171L437 122L388 217Z" fill="#205a7a" stroke="#205a7a"></path><path d="M388 217L284 236L360 260Z" fill="#112e42" stroke="#112e42"></path><path d="M790 364L798 274L697 285Z" fill="#246688" stroke="#246688"></path><path d="M728 126L629 82L694 163Z" fill="#297ea6" stroke="#297ea6"></path><path d="M694 163L629 82L624 184Z" fill="#277297" stroke="#277297"></path><path d="M629 82L497 76L624 184Z" fill="#277297" stroke="#277297"></path><path d="M827 181L728 126L694 163Z" fill="#205a7a" stroke="#205a7a"></path><path d="M221 370L309 371L203 314Z" fill="#1d4e6b" stroke="#1d4e6b"></path><path d="M339 313L309 371L425 433Z" fill="#19435d" stroke="#19435d"></path><path d="M663 510L784 462L673 439Z" fill="#277297" stroke="#277297"></path><path d="M900 194L827 181L798 274Z" fill="#19435d" stroke="#19435d"></path><path d="M437 600L510 600L476 537Z" fill="#246688" stroke="#246688"></path><path d="M476 537L510 600L610 485Z" fill="#205a7a" stroke="#205a7a"></path><path d="M663 510L738 600L784 462Z" fill="#081a28" stroke="#081a28"></path><path d="M510 600L623 600L610 485Z" fill="#277297" stroke="#277297"></path><path d="M298 132L284 236L388 217Z" fill="#00101c" stroke="#00101c"></path><path d="M360 260L284 236L339 313Z" fill="#15384f" stroke="#15384f"></path><path d="M298 132L388 217L437 122Z" fill="#19435d" stroke="#19435d"></path><path d="M798 274L827 181L694 163Z" fill="#112e42" stroke="#112e42"></path><path d="M900 336L798 274L790 364Z" fill="#112e42" stroke="#112e42"></path><path d="M393 488L437 600L476 537Z" fill="#205a7a" stroke="#205a7a"></path><path d="M266 600L437 600L393 488Z" fill="#19435d" stroke="#19435d"></path><path d="M711 0L605 0L629 82Z" fill="#19435d" stroke="#19435d"></path><path d="M629 82L605 0L497 76Z" fill="#112e42" stroke="#112e42"></path><path d="M711 0L629 82L728 126Z" fill="#081a28" stroke="#081a28"></path><path d="M623 600L738 600L663 510Z" fill="#246688" stroke="#246688"></path><path d="M605 0L517 0L497 76Z" fill="#0c2435" stroke="#0c2435"></path><path d="M497 76L437 0L437 122Z" fill="#0c2435" stroke="#0c2435"></path><path d="M437 0L298 132L437 122Z" fill="#1d4e6b" stroke="#1d4e6b"></path><path d="M900 410L790 364L784 462Z" fill="#00101c" stroke="#00101c"></path><path d="M900 410L900 336L790 364Z" fill="#0c2435" stroke="#0c2435"></path><path d="M221 370L279 507L309 371Z" fill="#1d4e6b" stroke="#1d4e6b"></path><path d="M309 371L279 507L393 488Z" fill="#15384f" stroke="#15384f"></path><path d="M738 600L769 600L784 462Z" fill="#081a28" stroke="#081a28"></path><path d="M203 314L309 371L339 313Z" fill="#277297" stroke="#277297"></path><path d="M203 314L339 313L284 236Z" fill="#081a28" stroke="#081a28"></path><path d="M900 506L900 410L784 462Z" fill="#15384f" stroke="#15384f"></path><path d="M517 0L437 0L497 76Z" fill="#0c2435" stroke="#0c2435"></path><path d="M829 72L711 0L728 126Z" fill="#00101c" stroke="#00101c"></path><path d="M900 336L900 194L798 274Z" fill="#1d4e6b" stroke="#1d4e6b"></path><path d="M827 181L829 72L728 126Z" fill="#19435d" stroke="#19435d"></path><path d="M179 172L203 314L284 236Z" fill="#00101c" stroke="#00101c"></path><path d="M900 135L829 72L827 181Z" fill="#081a28" stroke="#081a28"></path><path d="M769 600L900 506L784 462Z" fill="#112e42" stroke="#112e42"></path><path d="M900 194L900 135L827 181Z" fill="#297ea6" stroke="#297ea6"></path><path d="M262 0L229 127L298 132Z" fill="#205a7a" stroke="#205a7a"></path><path d="M298 132L229 127L284 236Z" fill="#246688" stroke="#246688"></path><path d="M279 507L266 600L393 488Z" fill="#15384f" stroke="#15384f"></path><path d="M192 520L266 600L279 507Z" fill="#277297" stroke="#277297"></path><path d="M192 520L279 507L221 370Z" fill="#277297" stroke="#277297"></path><path d="M229 127L179 172L284 236Z" fill="#112e42" stroke="#112e42"></path><path d="M900 0L824 0L829 72Z" fill="#246688" stroke="#246688"></path><path d="M829 72L824 0L711 0Z" fill="#297ea6" stroke="#297ea6"></path><path d="M77 415L221 370L203 314Z" fill="#19435d" stroke="#19435d"></path><path d="M123 498L192 520L221 370Z" fill="#0c2435" stroke="#0c2435"></path><path d="M769 600L900 600L900 506Z" fill="#1d4e6b" stroke="#1d4e6b"></path><path d="M437 0L262 0L298 132Z" fill="#1d4e6b" stroke="#1d4e6b"></path><path d="M229 127L92 122L179 172Z" fill="#00101c" stroke="#00101c"></path><path d="M76 199L101 285L179 172Z" fill="#112e42" stroke="#112e42"></path><path d="M179 172L101 285L203 314Z" fill="#205a7a" stroke="#205a7a"></path><path d="M900 135L900 0L829 72Z" fill="#00101c" stroke="#00101c"></path><path d="M125 600L180 600L192 520Z" fill="#081a28" stroke="#081a28"></path><path d="M192 520L180 600L266 600Z" fill="#00101c" stroke="#00101c"></path><path d="M77 415L123 498L221 370Z" fill="#112e42" stroke="#112e42"></path><path d="M262 0L204 0L229 127Z" fill="#1d4e6b" stroke="#1d4e6b"></path><path d="M101 285L77 415L203 314Z" fill="#00101c" stroke="#00101c"></path><path d="M92 122L76 199L179 172Z" fill="#00101c" stroke="#00101c"></path><path d="M101 285L0 261L77 415Z" fill="#277297" stroke="#277297"></path><path d="M204 0L92 122L229 127Z" fill="#112e42" stroke="#112e42"></path><path d="M0 510L125 600L123 498Z" fill="#277297" stroke="#277297"></path><path d="M123 498L125 600L192 520Z" fill="#00101c" stroke="#00101c"></path><path d="M0 205L0 261L76 199Z" fill="#081a28" stroke="#081a28"></path><path d="M76 199L0 261L101 285Z" fill="#112e42" stroke="#112e42"></path><path d="M77 415L0 510L123 498Z" fill="#277297" stroke="#277297"></path><path d="M0 261L0 427L77 415Z" fill="#205a7a" stroke="#205a7a"></path><path d="M0 133L0 205L76 199Z" fill="#19435d" stroke="#19435d"></path><path d="M0 133L76 199L92 122Z" fill="#0c2435" stroke="#0c2435"></path><path d="M0 427L0 510L77 415Z" fill="#1d4e6b" stroke="#1d4e6b"></path><path d="M63 0L0 133L92 122Z" fill="#205a7a" stroke="#205a7a"></path><path d="M204 0L63 0L92 122Z" fill="#112e42" stroke="#112e42"></path><path d="M0 510L0 600L125 600Z" fill="#112e42" stroke="#112e42"></path><path d="M63 0L0 0L0 133Z" fill="#297ea6" stroke="#297ea6"></path></g></svg>